<?xml version="1.0" encoding="UTF-8"?>
<svg id="Layer_2" data-name="Layer 2" xmlns="http://www.w3.org/2000/svg" viewBox="0 0 30.89 27.93">
  <defs>
    <style>
      .cls-1 {
        fill: #e6e5f3;
      }
    </style>
  </defs>
  <g id="Layer_1-2" data-name="Layer 1">
    <path class="cls-1" d="m27.15,12.18c.4-.86,1.3-3.11.62-5.74-.86-3.36-3.98-6.15-7.53-6.3-2.26-.1-3.99.9-4.7,1.38-.58-.42-2.51-1.71-5.13-1.49-3.66.3-5.6,3.32-6,3.97-2.25,3.73-.59,7.69-.42,8.1-.44.29-3.47,2.33-3.93,6.19-.4,3.34,1.3,6.49,3.82,8.1,3.46,2.22,8.44,1.54,11.69-1.91.26.32,3.06,3.75,7.42,3.44,3.94-.27,7.26-3.47,7.82-7.38.45-3.17-.97-6.39-3.66-8.36ZM8.27,5.18c.13-1.17.86-1.96,1.34-2.33,1.45-1.09,3.92-.84,6.04.77,1.51-1.31,3.45-1.73,4.99-1.04.28.13,1.74.79,2.08,2.38.3,1.41-.51,2.53-.65,2.71-2.17,2.19-4.33,4.38-6.5,6.57l-6.3-6.3c-.16-.16-1.15-1.23-1-2.76Zm-2.25.62c.01.47.08,1.38.61,2.37.42.78.97,1.38,1.29,1.69,2.12,2.05,4.09,3.92,6.12,5.95-.67.62-1.35,1.25-2.02,1.87-1.91-1.96-4.07-3.71-5.73-5.88-.35-.46-.81-1.52-.88-2.91-.08-1.46.36-2.57.61-3.09Zm-2.64,16.05c-1.1-1.03-1.44-2.76-.69-4.09.96-1.69,3.06-1.65,3.18-1.65.13.01.26.02.38.04.77.11,1.46.51,2.02,1.05.73.69,1.45,1.39,2.18,2.09-.84.9-1.6,1.88-2.52,2.71-1.31,1.18-3.34.97-4.55-.15Zm9.48,2.14c-.41.38-.97.82-1.72,1.14-2.36,1.03-4.65.14-5.24-.11.47-.02,1.11-.03,1.76-.35,1.55-.75,2.15-1.63,2.64-2.06,4.42-4.38,8.84-8.76,13.26-13.15.31-.33.74-.86,1.07-1.6.37-.82.47-1.55.5-2.03.25.49.73,1.6.65,3.06-.09,1.64-.83,2.77-1.15,3.21-3.92,3.96-7.85,7.93-11.77,11.89Zm11.31,1.33c-1.77.64-3.39.13-3.86-.03-1.85-.66-2.78-2.05-3.05-2.49.57-.61,1.14-1.14,1.71-1.76.96.92,1.9,1.82,2.87,2.68.33.26.8.66,1.43.86.91.29,1.49.34,1.86.29-.23.13-.55.31-.96.45Zm3.58-3.47c-1.2,1.12-3.23,1.33-4.54.15-.92-.83-1.69-1.81-2.53-2.71.73-.7,1.46-1.4,2.19-2.09.56-.54,1.25-.94,2.01-1.05.13-.02.26-.03.39-.04.12,0,2.22-.04,3.17,1.65.75,1.33.41,3.06-.69,4.09Z"/>
  </g>
</svg>