<svg width="800" height="800" viewBox="0 0 800 800" fill="none" xmlns="http://www.w3.org/2000/svg">
<path opacity="0.4" d="M399.999 733.333C584.093 733.333 733.333 584.093 733.333 400C733.333 215.905 584.093 66.6667 399.999 66.6667C215.904 66.6667 66.666 215.905 66.666 400C66.666 584.093 215.904 733.333 399.999 733.333Z" fill="black"/>
<path d="M352.65 519.337C345.983 519.337 339.65 516.67 334.983 512.003L240.648 417.67C230.982 408.003 230.982 392.003 240.648 382.337C250.315 372.67 266.315 372.67 275.982 382.337L352.65 459.003L523.983 287.67C533.65 278.003 549.65 278.003 559.317 287.67C568.983 297.337 568.983 313.337 559.317 323.003L370.317 512.003C365.65 516.67 359.317 519.337 352.65 519.337Z" fill="black"/>
</svg>
